<svg width="49" height="47" viewBox="0 0 49 47" fill="none" xmlns="http://www.w3.org/2000/svg">
<g clip-path="url(#clip0_544_57)">
<path d="M15.8516 16.7967C15.8508 19.6534 16.5972 22.4427 18.0165 24.9013L15.7158 33.3014L24.3123 31.0474C26.69 32.3417 29.354 33.02 32.0611 33.0202H32.0682C41.0051 33.0202 48.2799 25.748 48.2837 16.8095C48.2854 12.4782 46.6002 8.40533 43.5384 5.34112C40.477 2.27716 36.4056 0.588891 32.0676 0.586914C23.1297 0.586914 15.8554 7.8587 15.8517 16.7967" fill="url(#paint0_linear_544_57)"/>
<path d="M15.2728 16.7913C15.2719 19.7507 16.0451 22.6398 17.515 25.1864L15.1318 33.8876L24.0365 31.5528C26.4901 32.8905 29.2525 33.5958 32.0634 33.5969H32.0707C41.3282 33.5969 48.8643 26.0631 48.8683 16.8047C48.8699 12.3178 47.124 8.09846 43.9528 4.92447C40.7811 1.75087 36.5641 0.00184496 32.0707 0C22.8116 0 15.2765 7.53271 15.2728 16.7913ZM20.5759 24.7478L20.2434 24.22C18.8457 21.9976 18.108 19.4294 18.1091 16.7923C18.112 9.09685 24.3748 2.83597 32.076 2.83597C35.8054 2.83755 39.3103 4.29138 41.9465 6.92915C44.5826 9.56718 46.0331 13.0739 46.0322 16.8036C46.0287 24.4991 39.7658 30.7608 32.0707 30.7608H32.0652C29.5596 30.7595 27.1022 30.0866 24.9592 28.815L24.4492 28.5126L19.1649 29.898L20.5759 24.7478Z" fill="url(#paint1_linear_544_57)"/>
<path d="M27.8721 9.7711C27.5577 9.07226 27.2268 9.05815 26.9278 9.0459C26.6829 9.03536 26.403 9.03615 26.1234 9.03615C25.8435 9.03615 25.3887 9.14144 25.0043 9.56117C24.6195 9.98129 23.5352 10.9965 23.5352 13.0615C23.5352 15.1264 25.0392 17.1221 25.2489 17.4024C25.4588 17.6822 28.1524 22.0552 32.4185 23.7376C35.964 25.1357 36.6855 24.8576 37.455 24.7875C38.2246 24.7177 39.9383 23.7725 40.2879 22.7924C40.6378 21.8125 40.6378 20.9725 40.5329 20.797C40.428 20.6221 40.1481 20.5171 39.7284 20.3073C39.3087 20.0975 37.2451 19.082 36.8604 18.9419C36.4756 18.8019 36.1958 18.7321 35.9159 19.1523C35.636 19.5719 34.8322 20.5171 34.5873 20.797C34.3425 21.0776 34.0976 21.1125 33.678 20.9025C33.258 20.692 31.9063 20.2493 30.3026 18.8196C29.0549 17.7071 28.2125 16.3332 27.9677 15.913C27.7228 15.4934 27.9415 15.2659 28.1519 15.0568C28.3405 14.8687 28.5718 14.5667 28.7818 14.3217C28.9911 14.0766 29.0609 13.9017 29.2009 13.6218C29.341 13.3416 29.2709 13.0965 29.1661 12.8866C29.0609 12.6767 28.2453 10.6009 27.8721 9.7711Z" fill="white"/>
</g>
<path fill-rule="evenodd" clip-rule="evenodd" d="M30.4315 35.4722C30.7192 35.8807 30.834 36.3945 30.7509 36.9011C30.6678 37.4077 30.3934 37.8656 29.988 38.1746C28.1064 39.6045 25.9425 40.5799 23.6637 41.0254C21.3849 41.4709 19.0524 41.3746 16.8466 40.7438C14.6408 40.113 12.6209 38.9648 10.9432 37.3879C9.26546 35.811 7.97491 33.8478 7.1714 31.6501L6.13349 28.8142L4.70196 32.0675C4.49427 32.5396 4.11494 32.913 3.64743 33.1057C3.17991 33.2984 2.66251 33.2945 2.20904 33.095C1.75557 32.8954 1.40318 32.5166 1.22939 32.0417C1.0556 31.5668 1.07464 31.0349 1.28234 30.5629L4.60377 23.0143C4.81147 22.5423 5.19079 22.1689 5.65831 21.9762C6.12582 21.7835 6.64323 21.7874 7.0967 21.9869L14.3486 25.1778C14.8021 25.3774 15.1544 25.7562 15.3282 26.2311C15.502 26.706 15.483 27.2379 15.2753 27.7099C15.0676 28.1819 14.6883 28.5554 14.2207 28.748C13.7532 28.9407 13.2358 28.9369 12.7824 28.7373L9.6591 27.3631L10.6982 30.2024C11.3011 31.8506 12.2693 33.3229 13.5278 34.5054C14.7863 35.6879 16.3015 36.5489 17.956 37.0217C19.6104 37.4944 21.3599 37.5664 23.069 37.2319C24.7781 36.8974 26.401 36.1655 27.812 35.0928C28.0136 34.9401 28.2413 34.8288 28.4821 34.7652C28.723 34.7017 28.9722 34.6871 29.2157 34.7225C29.4592 34.7578 29.692 34.8423 29.901 34.9711C30.1101 35.0999 30.2888 35.2695 30.4315 35.4722Z" fill="black"/>
<defs>
<linearGradient id="paint0_linear_544_57" x1="1644.11" y1="3272.03" x2="1644.11" y2="0.586914" gradientUnits="userSpaceOnUse">
<stop stop-color="#1FAF38"/>
<stop offset="1" stop-color="#60D669"/>
</linearGradient>
<linearGradient id="paint1_linear_544_57" x1="1701.95" y1="3388.76" x2="1701.95" y2="0" gradientUnits="userSpaceOnUse">
<stop stop-color="#F9F9F9"/>
<stop offset="1" stop-color="white"/>
</linearGradient>
<clipPath id="clip0_544_57">
<rect width="34" height="34" fill="white" transform="translate(15)"/>
</clipPath>
</defs>
</svg>
