<?xml version="1.0" encoding="UTF-8"?>
<svg version="1.1" xmlns="http://www.w3.org/2000/svg" width="180" height="180">
<path d="M0 0 C59.4 0 118.8 0 180 0 C180 59.4 180 118.8 180 180 C120.6 180 61.2 180 0 180 C0 120.6 0 61.2 0 0 Z " fill="#00AFEC" transform="translate(0,0)"/>
<path d="M0 0 C0.33 0 0.66 0 1 0 C3.36593879 23.22539912 3.36593879 23.22539912 -3.04052734 32.1796875 C-5.32727572 34.94912855 -7.69612647 37.59594231 -10.20849609 40.16259766 C-11.91643803 41.91429717 -13.52084213 43.71765776 -15.11328125 45.57421875 C-25.75182127 57.83867529 -37.66033606 66.58432219 -52 74 C-52.82242188 74.4434375 -53.64484375 74.886875 -54.4921875 75.34375 C-70.31052852 83.22307458 -91.30945748 83.16089144 -108 78 C-117.60608309 74.46136338 -126.33642916 69.8312568 -134 63 C-134.6703125 62.47019531 -135.340625 61.94039062 -136.03125 61.39453125 C-149.4828484 50.50391023 -158.96395988 32.36040125 -160.9375 15.25 C-161.36441912 11.18690766 -161.41032514 9.62019917 -159.12890625 6.171875 C-156.23122283 3.21570622 -155.60299983 3.01039655 -151.375 2.9375 C-150.26125 2.958125 -149.1475 2.97875 -148 3 C-147.74347656 3.92039063 -147.48695313 4.84078125 -147.22265625 5.7890625 C-141.86283864 23.91494727 -131.78498271 37.78735889 -115 47 C-98.33829093 55.34188878 -79.80296529 56.43099405 -62.08105469 50.73193359 C-45.9364174 45.05365783 -33.3540439 35.73352115 -21 24 C-20.52030762 23.54753906 -20.04061523 23.09507813 -19.54638672 22.62890625 C-12.84661847 16.27155624 -7.00214518 9.73274458 -1.64453125 2.203125 C-0.83048828 1.11257812 -0.83048828 1.11257812 0 0 Z " fill="#FBFDFE" transform="translate(179,52)"/>
</svg>
